<svg width="27" height="10" viewBox="0 0 27 10" fill="none" xmlns="http://www.w3.org/2000/svg">
<path fill-rule="evenodd" clip-rule="evenodd" d="M3.06942 4.60695C3.83414 4.60699 4.18106 5.56221 3.59481 6.05324L2.2579 7.17336C2.12553 7.28422 2.20437 7.49953 2.37704 7.49953C2.38621 7.49955 2.39532 7.50108 2.40438 7.50246L8.76669 8.48488C8.83287 8.4951 8.89494 8.52306 8.94637 8.56594C9.211 8.78658 9.05544 9.21697 8.71102 9.21731H1.50302C0.184713 9.21731 -0.492422 7.63838 0.416102 6.68313L2.11825 4.89406C2.29223 4.71113 2.53376 4.60695 2.78622 4.60695H3.06942ZM7.2911 0.0571488C8.07368 -0.0792551 8.58025 0.858228 8.0372 1.43801L5.61532 4.02297C5.42817 4.22273 5.1664 4.33645 4.89266 4.33645H4.31747C3.62689 4.33611 3.2926 3.49082 3.79598 3.01809L4.97177 1.91555C5.05415 1.83827 4.9996 1.70011 4.8868 1.69973H1.02841C0.694208 1.69956 0.652298 1.21428 0.981531 1.15676L7.2911 0.0571488Z" fill="#015FB5"/>
<path d="M22.4827 9.00788C21.7814 9.00788 21.161 8.85052 20.6214 8.53581C20.0819 8.21211 19.6548 7.7805 19.3401 7.24099C19.0254 6.69249 18.868 6.08105 18.868 5.40667C18.868 4.73228 19.0254 4.12533 19.3401 3.58583C19.6548 3.03733 20.0819 2.60572 20.6214 2.29101C21.161 1.9673 21.7814 1.80545 22.4827 1.80545C23.1841 1.80545 23.8045 1.9673 24.344 2.29101C24.8925 2.60572 25.3197 3.03283 25.6254 3.57234C25.9401 4.11185 26.0974 4.72329 26.0974 5.40667C26.0974 6.08105 25.9401 6.69249 25.6254 7.24099C25.3197 7.7805 24.8925 8.21211 24.344 8.53581C23.8045 8.85052 23.1841 9.00788 22.4827 9.00788ZM22.4827 7.94235C22.9593 7.94235 23.3729 7.82996 23.7236 7.60516C24.0743 7.38037 24.3485 7.07914 24.5464 6.70148C24.7442 6.31484 24.8431 5.88323 24.8431 5.40667C24.8431 4.9301 24.7442 4.50299 24.5464 4.12533C24.3485 3.73869 24.0743 3.43297 23.7236 3.20817C23.3729 2.98338 22.9593 2.87098 22.4827 2.87098C22.0152 2.87098 21.6015 2.98338 21.2419 3.20817C20.8912 3.43297 20.6169 3.73869 20.4191 4.12533C20.2213 4.50299 20.1224 4.9301 20.1224 5.40667C20.1224 5.88323 20.2213 6.31484 20.4191 6.70148C20.6169 7.07914 20.8912 7.38037 21.2419 7.60516C21.6015 7.82996 22.0152 7.94235 22.4827 7.94235Z" fill="#015FB5"/>
<path d="M16.368 9V0H17.618V9H16.368Z" fill="#015FB5"/>
<path d="M12.739 8.84603C11.9837 8.84603 11.3138 8.70666 10.7293 8.42791C10.1449 8.14017 9.6863 7.74004 9.3536 7.2275C9.02989 6.70598 8.86804 6.09903 8.86804 5.40666C8.86804 4.72329 9.00741 4.11185 9.28616 3.57234C9.56491 3.02384 9.95155 2.59223 10.4461 2.27752C10.9407 1.96281 11.5161 1.80545 12.1725 1.80545C12.8829 1.80545 13.4718 1.95831 13.9394 2.26403C14.416 2.56975 14.7712 2.98338 15.0049 3.5049C15.2387 4.01743 15.3556 4.59291 15.3556 5.23133C15.3556 5.33024 15.3511 5.43364 15.3421 5.54154C15.3421 5.64944 15.3331 5.74386 15.3152 5.82478H10.1898C10.2348 6.2474 10.3742 6.60707 10.608 6.9038C10.8417 7.19154 11.1385 7.41184 11.4981 7.5647C11.8668 7.70857 12.2714 7.7805 12.712 7.7805H14.5059V8.84603H12.739ZM10.1763 4.94808H14.1013C14.1013 4.77724 14.0833 4.5974 14.0473 4.40858C14.0114 4.21076 13.9484 4.02193 13.8585 3.84209C13.7686 3.65326 13.6472 3.48692 13.4943 3.34305C13.3505 3.19019 13.1661 3.0688 12.9413 2.97888C12.7255 2.88896 12.4693 2.844 12.1725 2.844C11.8578 2.844 11.5791 2.90695 11.3363 3.03283C11.1025 3.14972 10.9002 3.31158 10.7293 3.51839C10.5585 3.71621 10.4281 3.941 10.3382 4.19277C10.2483 4.44454 10.1943 4.69631 10.1763 4.94808Z" fill="#015FB5"/>
</svg>
