<svg width="16" height="16" viewBox="0 0 16 16" fill="none" xmlns="http://www.w3.org/2000/svg">
<rect width="16" height="16" rx="8" fill="url(#paint0_linear_15_145)"/>
<path d="M6.47204 8.00074C7.14282 8.00074 7.44547 8.84021 6.92907 9.26832L5.74743 10.2488C5.6303 10.3459 5.69879 10.5359 5.85095 10.5359C5.85911 10.5359 5.86729 10.5366 5.87536 10.5379L11.5101 11.3992C11.5676 11.408 11.6215 11.4325 11.6664 11.4695C11.8997 11.6621 11.7638 12.0405 11.4613 12.0408H5.50329C4.18133 12.0408 3.50535 10.455 4.42126 9.50172L5.62341 8.24976C5.77626 8.09068 5.98777 8.00087 6.20837 8.00074H6.47204ZM10.2093 4.01148C10.8969 3.89303 11.339 4.71842 10.8597 5.22535L8.71618 7.49098C8.55158 7.66485 8.3228 7.76339 8.08337 7.76344H7.56091C6.95515 7.76311 6.66378 7.02043 7.10778 6.60816L8.14685 5.64234C8.21988 5.57452 8.1723 5.45289 8.07263 5.45289H4.65759C4.36424 5.45289 4.3275 5.02718 4.61657 4.9773L10.2093 4.01148Z" fill="white"/>
<defs>
<linearGradient id="paint0_linear_15_145" x1="-1.40001e-07" y1="0.174953" x2="16" y2="15.825" gradientUnits="userSpaceOnUse">
<stop offset="0.406626" stop-color="#610088"/>
<stop offset="1" stop-color="#1DCAFF"/>
</linearGradient>
</defs>
</svg>
