<svg width="16" height="16" viewBox="0 0 16 16" fill="none" xmlns="http://www.w3.org/2000/svg">
<path d="M1.5 0C0.671573 0 0 0.671573 0 1.5V14.5C0 15.3284 0.671573 16 1.5 16H14.5C15.3284 16 16 15.3284 16 14.5V1.5C16 0.671573 15.3284 0 14.5 0H1.5ZM12.517 12.0318C12.7597 12.2533 12.603 12.6574 12.2744 12.6574H6.08756C4.80135 12.6574 4.11166 11.1447 4.95519 10.1737L6.4323 8.47338C6.5956 8.28541 6.83237 8.17746 7.08137 8.17746H7.21145C7.94938 8.17746 8.30221 9.08435 7.75831 9.58306L6.55655 10.685C6.43903 10.7927 6.51527 10.9887 6.67471 10.9887C6.68447 10.9887 6.69422 10.9895 6.70385 10.9911L12.3344 11.9428C12.4025 11.9543 12.4659 11.9852 12.517 12.0318ZM9.56654 7.59235C9.39186 7.79652 9.13661 7.91406 8.86792 7.91406H8.47764C7.8101 7.91406 7.47124 7.11112 7.93693 6.63286L8.98915 5.55226C9.06207 5.47737 9.00901 5.35165 8.90449 5.35165H5.48021C5.15833 5.35165 5.1143 4.88606 5.43047 4.82572L10.9662 3.76925C11.7076 3.62777 12.2131 4.49891 11.7225 5.07238L9.56654 7.59235Z" fill="url(#paint0_linear_14_132)"/>
<defs>
<linearGradient id="paint0_linear_14_132" x1="4.62902e-07" y1="-1.44445e-06" x2="16" y2="16" gradientUnits="userSpaceOnUse">
<stop offset="0.5" stop-color="#610088"/>
<stop offset="1" stop-color="#1DCAFF"/>
</linearGradient>
</defs>
</svg>
